<svg width="134" height="72" viewBox="0 0 134 72" fill="none" xmlns="http://www.w3.org/2000/svg">
<path d="M16.9479 0.219999C21.0139 0.219999 24.4909 1.626 27.3789 4.438C30.2669 7.25 31.7109 10.993 31.7109 15.667C31.7109 20.341 30.2669 24.141 27.3789 27.067C24.5289 29.993 21.1849 31.456 17.3469 31.456C13.5469 31.456 10.1269 29.784 7.08694 26.44V42.058H0.702938V0.676H7.08694V5.977C9.59494 2.139 12.8819 0.219999 16.9479 0.219999ZM6.97294 15.895C6.97294 18.783 7.84694 21.158 9.59494 23.02C11.3429 24.844 13.4709 25.756 15.9789 25.756C18.4869 25.756 20.6719 24.844 22.5339 23.02C24.3959 21.196 25.3269 18.84 25.3269 15.952C25.3269 13.026 24.4149 10.613 22.5909 8.713C20.7669 6.775 18.5819 5.806 16.0359 5.806C13.4899 5.806 11.3429 6.775 9.59494 8.713C7.84694 10.613 6.97294 13.007 6.97294 15.895ZM63.5668 31H57.7528V26.953C55.2448 29.955 51.8818 31.456 47.6638 31.456C44.5098 31.456 41.8878 30.563 39.7978 28.777C37.7458 26.991 36.7198 24.616 36.7198 21.652C36.7198 18.65 37.8218 16.408 40.0258 14.926C42.2298 13.444 45.2128 12.703 48.9748 12.703H57.2398V11.563C57.2398 7.535 54.9978 5.521 50.5138 5.521C47.7018 5.521 44.7758 6.547 41.7358 8.599L38.8858 4.609C42.5718 1.683 46.7518 0.219999 51.4258 0.219999C54.9978 0.219999 57.9048 1.132 60.1468 2.956C62.4268 4.742 63.5668 7.573 63.5668 11.449V31ZM57.1828 19.714V17.149H50.0008C45.4028 17.149 43.1038 18.593 43.1038 21.481C43.1038 22.963 43.6738 24.103 44.8138 24.901C45.9538 25.661 47.5308 26.041 49.5448 26.041C51.5968 26.041 53.3828 25.471 54.9028 24.331C56.4228 23.191 57.1828 21.652 57.1828 19.714ZM85.9059 31.456C81.6879 31.456 78.0589 30.031 75.0189 27.181C71.9789 24.293 70.4589 20.531 70.4589 15.895C70.4589 11.259 72.0359 7.497 75.1899 4.609C78.3819 1.683 82.2579 0.219999 86.8179 0.219999C91.3779 0.219999 95.2349 1.797 98.3889 4.951L94.6269 9.568C92.0049 7.288 89.3639 6.148 86.7039 6.148C84.0439 6.148 81.7259 7.041 79.7499 8.827C77.8119 10.575 76.8429 12.855 76.8429 15.667C76.8429 18.441 77.8119 20.797 79.7499 22.735C81.6879 24.673 84.0629 25.642 86.8749 25.642C89.7249 25.642 92.4039 24.35 94.9119 21.766L98.6739 25.87C94.9879 29.594 90.7319 31.456 85.9059 31.456ZM133.511 18.631H109.742C109.894 20.835 110.901 22.621 112.763 23.989C114.625 25.319 116.753 25.984 119.147 25.984C122.947 25.984 125.835 24.787 127.811 22.393L131.459 26.383C128.191 29.765 123.935 31.456 118.691 31.456C114.435 31.456 110.806 30.05 107.804 27.238C104.84 24.388 103.358 20.588 103.358 15.838C103.358 11.05 104.878 7.25 107.918 4.438C110.958 1.626 114.53 0.219999 118.634 0.219999C122.776 0.219999 126.291 1.474 129.179 3.982C132.067 6.452 133.511 9.872 133.511 14.242V18.631ZM109.742 13.615H127.127C127.127 11.069 126.329 9.112 124.733 7.744C123.137 6.376 121.161 5.692 118.805 5.692C116.487 5.692 114.397 6.414 112.535 7.858C110.673 9.264 109.742 11.183 109.742 13.615ZM6.10281 59.48V71H1.62281V49.72H6.10281V53.6C6.82281 52.2933 7.80948 51.2667 9.06281 50.52C10.3428 49.7733 11.7161 49.4 13.1828 49.4C15.5828 49.4 17.5161 50.1333 18.9828 51.6C20.4761 53.0667 21.2228 55.1867 21.2228 57.96V71H16.7428V59.32C16.7428 55.4 15.1161 53.44 11.8628 53.44C10.3161 53.44 8.96948 53.96 7.82281 55C6.67615 56.0133 6.10281 57.5067 6.10281 59.48ZM44.7222 71H40.6422V68.16C38.8822 70.2667 36.5222 71.32 33.5622 71.32C31.3489 71.32 29.5089 70.6933 28.0422 69.44C26.6022 68.1867 25.8822 66.52 25.8822 64.44C25.8822 62.3333 26.6555 60.76 28.2022 59.72C29.7489 58.68 31.8422 58.16 34.4822 58.16H40.2822V57.36C40.2822 54.5333 38.7089 53.12 35.5622 53.12C33.5889 53.12 31.5355 53.84 29.4022 55.28L27.4022 52.48C29.9889 50.4267 32.9222 49.4 36.2022 49.4C38.7089 49.4 40.7489 50.04 42.3222 51.32C43.9222 52.5733 44.7222 54.56 44.7222 57.28V71ZM40.2422 63.08V61.28H35.2022C31.9755 61.28 30.3622 62.2933 30.3622 64.32C30.3622 65.36 30.7622 66.16 31.5622 66.72C32.3622 67.2533 33.4689 67.52 34.8822 67.52C36.3222 67.52 37.5755 67.12 38.6422 66.32C39.7089 65.52 40.2422 64.44 40.2422 63.08ZM66.4788 53.32V64.12C66.4788 65.1333 66.7454 65.9467 67.2788 66.56C67.8121 67.1467 68.5588 67.44 69.5188 67.44C70.4788 67.44 71.3988 66.9733 72.2788 66.04L74.1188 69.2C72.5454 70.6133 70.7988 71.32 68.8788 71.32C66.9854 71.32 65.3588 70.6667 63.9988 69.36C62.6654 68.0267 61.9988 66.24 61.9988 64V53.32H59.3188V49.72H61.9988V43.04H66.4788V49.72H72.0788V53.32H66.4788ZM97.4775 62.32H80.7975C80.9042 63.8667 81.6108 65.12 82.9175 66.08C84.2242 67.0133 85.7175 67.48 87.3975 67.48C90.0642 67.48 92.0908 66.64 93.4775 64.96L96.0375 67.76C93.7442 70.1333 90.7575 71.32 87.0775 71.32C84.0908 71.32 81.5442 70.3333 79.4375 68.36C77.3575 66.36 76.3175 63.6933 76.3175 60.36C76.3175 57 77.3842 54.3333 79.5175 52.36C81.6508 50.3867 84.1575 49.4 87.0375 49.4C89.9442 49.4 92.4108 50.28 94.4375 52.04C96.4642 53.7733 97.4775 56.1733 97.4775 59.24V62.32ZM80.7975 58.8H92.9975C92.9975 57.0133 92.4375 55.64 91.3175 54.68C90.1975 53.72 88.8108 53.24 87.1575 53.24C85.5308 53.24 84.0642 53.7467 82.7575 54.76C81.4508 55.7467 80.7975 57.0933 80.7975 58.8ZM106.884 71H102.404V41.32H106.884V71ZM130.621 71H126.541V68.16C124.781 70.2667 122.421 71.32 119.461 71.32C117.247 71.32 115.407 70.6933 113.941 69.44C112.501 68.1867 111.781 66.52 111.781 64.44C111.781 62.3333 112.554 60.76 114.101 59.72C115.647 58.68 117.741 58.16 120.381 58.16H126.181V57.36C126.181 54.5333 124.607 53.12 121.461 53.12C119.487 53.12 117.434 53.84 115.301 55.28L113.301 52.48C115.887 50.4267 118.821 49.4 122.101 49.4C124.607 49.4 126.647 50.04 128.221 51.32C129.821 52.5733 130.621 54.56 130.621 57.28V71ZM126.141 63.08V61.28H121.101C117.874 61.28 116.261 62.2933 116.261 64.32C116.261 65.36 116.661 66.16 117.461 66.72C118.261 67.2533 119.367 67.52 120.781 67.52C122.221 67.52 123.474 67.12 124.541 66.32C125.607 65.52 126.141 64.44 126.141 63.08Z" fill="white"/>
</svg>
