<svg width="73" height="41" viewBox="0 0 73 41" fill="none" xmlns="http://www.w3.org/2000/svg">
<path d="M9.132 0.835998C12.948 0.835998 15.732 1.568 17.484 3.032C19.236 4.496 20.112 6.752 20.112 9.8C20.112 12.848 19.212 15.08 17.412 16.496C15.636 17.912 12.9 18.62 9.204 18.62H4.74V26H0.492V0.835998H9.132ZM9.672 14.768C12.024 14.768 13.62 14.324 14.46 13.436C15.324 12.524 15.756 11.204 15.756 9.476C15.756 7.724 15.216 6.488 14.136 5.768C13.056 5.048 11.364 4.688 9.06 4.688H4.74V14.768H9.672ZM43.9654 0.835998H48.2134V26H43.6054L29.3494 7.64V26H25.1014V0.835998H29.3494L43.9654 19.628V0.835998ZM64.6991 4.724V26H60.4511V4.724H52.8191V0.835998H72.3311V4.724H64.6991Z" fill="#0084FF"/>
<path d="M4.044 31.612C5.316 31.612 6.244 31.856 6.828 32.344C7.412 32.832 7.704 33.584 7.704 34.6C7.704 35.616 7.404 36.36 6.804 36.832C6.212 37.304 5.3 37.54 4.068 37.54H2.58V40H1.164V31.612H4.044ZM4.224 36.256C5.008 36.256 5.54 36.108 5.82 35.812C6.108 35.508 6.252 35.068 6.252 34.492C6.252 33.908 6.072 33.496 5.712 33.256C5.352 33.016 4.788 32.896 4.02 32.896H2.58V36.256H4.224ZM14.3471 40H13.1231V39.148C12.5951 39.78 11.8871 40.096 10.9991 40.096C10.3351 40.096 9.78313 39.908 9.34313 39.532C8.91113 39.156 8.69513 38.656 8.69513 38.032C8.69513 37.4 8.92713 36.928 9.39113 36.616C9.85513 36.304 10.4831 36.148 11.2751 36.148H13.0151V35.908C13.0151 35.06 12.5431 34.636 11.5991 34.636C11.0071 34.636 10.3911 34.852 9.75113 35.284L9.15113 34.444C9.92713 33.828 10.8071 33.52 11.7911 33.52C12.5431 33.52 13.1551 33.712 13.6271 34.096C14.1071 34.472 14.3471 35.068 14.3471 35.884V40ZM13.0031 37.624V37.084H11.4911C10.5231 37.084 10.0391 37.388 10.0391 37.996C10.0391 38.308 10.1591 38.548 10.3991 38.716C10.6391 38.876 10.9711 38.956 11.3951 38.956C11.8271 38.956 12.2031 38.836 12.5231 38.596C12.8431 38.356 13.0031 38.032 13.0031 37.624ZM19.0501 40.096C18.1621 40.096 17.3981 39.796 16.7581 39.196C16.1181 38.588 15.7981 37.796 15.7981 36.82C15.7981 35.844 16.1301 35.052 16.7941 34.444C17.4661 33.828 18.2821 33.52 19.2421 33.52C20.2021 33.52 21.0141 33.852 21.6781 34.516L20.8861 35.488C20.3341 35.008 19.7781 34.768 19.2181 34.768C18.6581 34.768 18.1701 34.956 17.7541 35.332C17.3461 35.7 17.1421 36.18 17.1421 36.772C17.1421 37.356 17.3461 37.852 17.7541 38.26C18.1621 38.668 18.6621 38.872 19.2541 38.872C19.8541 38.872 20.4181 38.6 20.9461 38.056L21.7381 38.92C20.9621 39.704 20.0661 40.096 19.0501 40.096ZM29.0722 37.396H24.0682C24.1002 37.86 24.3122 38.236 24.7042 38.524C25.0962 38.804 25.5442 38.944 26.0482 38.944C26.8482 38.944 27.4562 38.692 27.8722 38.188L28.6402 39.028C27.9522 39.74 27.0562 40.096 25.9522 40.096C25.0562 40.096 24.2922 39.8 23.6602 39.208C23.0362 38.608 22.7242 37.808 22.7242 36.808C22.7242 35.8 23.0442 35 23.6842 34.408C24.3242 33.816 25.0762 33.52 25.9402 33.52C26.8122 33.52 27.5522 33.784 28.1602 34.312C28.7682 34.832 29.0722 35.552 29.0722 36.472V37.396ZM24.0682 36.34H27.7282C27.7282 35.804 27.5602 35.392 27.2242 35.104C26.8882 34.816 26.4722 34.672 25.9762 34.672C25.4882 34.672 25.0482 34.824 24.6562 35.128C24.2642 35.424 24.0682 35.828 24.0682 36.34ZM34.8941 36.544V40H33.5501V33.616H34.8941V34.78C35.1101 34.388 35.4061 34.08 35.7821 33.856C36.1661 33.632 36.5781 33.52 37.0181 33.52C37.7381 33.52 38.3181 33.74 38.7581 34.18C39.2061 34.62 39.4301 35.256 39.4301 36.088V40H38.0861V36.496C38.0861 35.32 37.5981 34.732 36.6221 34.732C36.1581 34.732 35.7541 34.888 35.4101 35.2C35.0661 35.504 34.8941 35.952 34.8941 36.544ZM46.4799 40H45.2559V39.148C44.7279 39.78 44.0199 40.096 43.1319 40.096C42.4679 40.096 41.9159 39.908 41.4759 39.532C41.0439 39.156 40.8279 38.656 40.8279 38.032C40.8279 37.4 41.0599 36.928 41.5239 36.616C41.9879 36.304 42.6159 36.148 43.4079 36.148H45.1479V35.908C45.1479 35.06 44.6759 34.636 43.7319 34.636C43.1399 34.636 42.5239 34.852 41.8839 35.284L41.2839 34.444C42.0599 33.828 42.9399 33.52 43.9239 33.52C44.6759 33.52 45.2879 33.712 45.7599 34.096C46.2399 34.472 46.4799 35.068 46.4799 35.884V40ZM45.1359 37.624V37.084H43.6239C42.6559 37.084 42.1719 37.388 42.1719 37.996C42.1719 38.308 42.2919 38.548 42.5319 38.716C42.7719 38.876 43.1039 38.956 43.5279 38.956C43.9599 38.956 44.3359 38.836 44.6559 38.596C44.9759 38.356 45.1359 38.032 45.1359 37.624ZM53.0069 34.696V37.936C53.0069 38.24 53.0869 38.484 53.2469 38.668C53.4069 38.844 53.6309 38.932 53.9189 38.932C54.2069 38.932 54.4829 38.792 54.7469 38.512L55.2989 39.46C54.8269 39.884 54.3029 40.096 53.7269 40.096C53.1589 40.096 52.6709 39.9 52.2629 39.508C51.8629 39.108 51.6629 38.572 51.6629 37.9V34.696H50.8589V33.616H51.6629V31.612H53.0069V33.616H54.6869V34.696H53.0069ZM62.3065 37.396H57.3025C57.3345 37.86 57.5465 38.236 57.9385 38.524C58.3305 38.804 58.7785 38.944 59.2825 38.944C60.0825 38.944 60.6905 38.692 61.1065 38.188L61.8745 39.028C61.1865 39.74 60.2905 40.096 59.1865 40.096C58.2905 40.096 57.5265 39.8 56.8945 39.208C56.2705 38.608 55.9585 37.808 55.9585 36.808C55.9585 35.8 56.2785 35 56.9185 34.408C57.5585 33.816 58.3105 33.52 59.1745 33.52C60.0465 33.52 60.7865 33.784 61.3945 34.312C62.0025 34.832 62.3065 35.552 62.3065 36.472V37.396ZM57.3025 36.34H60.9625C60.9625 35.804 60.7945 35.392 60.4585 35.104C60.1225 34.816 59.7065 34.672 59.2105 34.672C58.7225 34.672 58.2825 34.824 57.8905 35.128C57.4985 35.424 57.3025 35.828 57.3025 36.34ZM65.1285 40H63.7845V31.096H65.1285V40ZM72.2495 40H71.0255V39.148C70.4975 39.78 69.7895 40.096 68.9015 40.096C68.2375 40.096 67.6855 39.908 67.2455 39.532C66.8135 39.156 66.5975 38.656 66.5975 38.032C66.5975 37.4 66.8295 36.928 67.2935 36.616C67.7575 36.304 68.3855 36.148 69.1775 36.148H70.9175V35.908C70.9175 35.06 70.4455 34.636 69.5015 34.636C68.9095 34.636 68.2935 34.852 67.6535 35.284L67.0535 34.444C67.8295 33.828 68.7095 33.52 69.6935 33.52C70.4455 33.52 71.0575 33.712 71.5295 34.096C72.0095 34.472 72.2495 35.068 72.2495 35.884V40ZM70.9055 37.624V37.084H69.3935C68.4255 37.084 67.9415 37.388 67.9415 37.996C67.9415 38.308 68.0615 38.548 68.3015 38.716C68.5415 38.876 68.8735 38.956 69.2975 38.956C69.7295 38.956 70.1055 38.836 70.4255 38.596C70.7455 38.356 70.9055 38.032 70.9055 37.624Z" fill="#0084FF"/>
</svg>