<svg width="30" height="30" viewBox="0 0 30 30" fill="none" xmlns="http://www.w3.org/2000/svg">
<path d="M21.6667 1.6665H8.33335C4.65146 1.6665 1.66669 4.65127 1.66669 8.33317V21.6665C1.66669 25.3484 4.65146 28.3332 8.33335 28.3332H21.6667C25.3486 28.3332 28.3334 25.3484 28.3334 21.6665V8.33317C28.3334 4.65127 25.3486 1.6665 21.6667 1.6665Z" stroke="#8C9BBC" stroke-width="3" stroke-linecap="round" stroke-linejoin="round"/>
<path d="M20.3334 14.1599C20.4979 15.2696 20.3084 16.4029 19.7917 17.3986C19.275 18.3943 18.4575 19.2018 17.4555 19.7061C16.4535 20.2105 15.3179 20.386 14.2104 20.2078C13.1029 20.0296 12.0797 19.5067 11.2865 18.7135C10.4932 17.9202 9.97033 16.8971 9.79211 15.7895C9.61389 14.682 9.78944 13.5464 10.2938 12.5444C10.7981 11.5424 11.6056 10.7249 12.6013 10.2082C13.5971 9.69157 14.7304 9.50203 15.84 9.66658C16.9719 9.83443 18.0198 10.3619 18.8289 11.171C19.6381 11.9801 20.1655 13.028 20.3334 14.1599Z" stroke="#8C9BBC" stroke-width="3" stroke-linecap="round" stroke-linejoin="round"/>
<path d="M22.3333 7.6665H22.3466" stroke="#8C9BBC" stroke-width="3" stroke-linecap="round" stroke-linejoin="round"/>
</svg>
